<?xml version="1.0" standalone="no"?>
<!DOCTYPE svg PUBLIC "-//W3C//DTD SVG 20010904//EN"
 "http://www.w3.org/TR/2001/REC-SVG-20010904/DTD/svg10.dtd">
<svg version="1.0" xmlns="http://www.w3.org/2000/svg"
 width="481.000000pt" height="481.000000pt" viewBox="0 0 481.000000 481.000000"
 preserveAspectRatio="xMidYMid meet">

<g transform="translate(0.000000,481.000000) scale(0.100000,-0.100000)"
fill="#000000" stroke="none">
<path d="M2220 4740 c-101 -3 -174 -10 -187 -18 -13 -7 -69 -19 -125 -28 -86
-13 -111 -21 -155 -50 -29 -19 -53 -42 -53 -50 0 -36 -128 -134 -175 -134 -9
0 -42 -24 -73 -54 -81 -76 -154 -110 -297 -136 -66 -12 -139 -24 -162 -27 -23
-3 -49 -13 -59 -24 -9 -10 -25 -19 -35 -19 -32 0 -239 -216 -239 -250 0 -5 -8
-15 -18 -22 -23 -16 -43 -117 -28 -141 7 -11 7 -23 -1 -39 -48 -105 -50 -115
-29 -143 11 -16 31 -21 103 -26 63 -4 99 -12 128 -28 81 -45 91 -49 115 -60
14 -6 48 -24 75 -41 28 -16 64 -36 80 -44 41 -19 93 -66 108 -96 7 -14 40 -40
76 -59 l63 -33 -6 -40 c-5 -30 1 -64 24 -135 17 -53 36 -105 41 -116 7 -12 8
-44 4 -84 -6 -58 -10 -66 -38 -83 -18 -11 -47 -33 -65 -51 -20 -18 -39 -28
-48 -25 -9 3 -19 6 -24 6 -4 0 -18 21 -30 48 -26 54 -34 62 -74 62 -46 0 -90
-42 -132 -127 -42 -84 -39 -85 -59 9 -9 47 -49 60 -196 60 -92 1 -160 -51
-213 -162 -26 -55 -31 -78 -32 -146 l-1 -81 -64 -62 c-35 -33 -70 -61 -79 -61
-8 0 -24 -3 -35 -6 -29 -7 -115 59 -115 90 0 29 -24 63 -34 48 -14 -23 -26
-12 -26 24 0 69 -48 108 -51 42 -5 -96 3 -173 20 -207 15 -28 17 -46 12 -78
-5 -23 -7 -57 -5 -75 2 -18 6 -76 9 -128 3 -52 9 -111 15 -130 22 -82 63 -184
80 -202 10 -11 21 -36 25 -56 4 -20 18 -49 31 -65 13 -16 24 -37 24 -48 0 -26
22 -24 48 4 25 26 29 80 11 121 -6 13 -9 36 -5 50 8 32 36 34 82 5 24 -14 43
-19 62 -14 20 4 36 0 53 -14 30 -23 55 -10 53 29 -2 23 20 60 36 60 3 0 15 -9
27 -19 11 -10 28 -21 38 -22 11 -3 22 -20 30 -44 6 -22 19 -52 28 -65 9 -14
19 -44 23 -67 l6 -42 26 17 c21 14 51 17 152 17 l125 0 17 34 c9 18 30 41 46
51 60 37 77 85 42 120 -11 11 -20 28 -20 37 0 9 -7 25 -16 34 -14 15 -15 23
-5 47 12 28 14 28 69 24 62 -5 70 -12 127 -106 35 -59 52 -65 180 -68 66 -2
101 2 132 15 l43 17 35 -35 c19 -20 35 -44 35 -55 0 -55 114 -160 173 -160 34
0 54 -15 110 -79 22 -27 71 -27 104 -1 24 19 26 19 57 3 87 -47 230 -71 293
-49 55 19 62 37 105 299 l12 67 -36 38 c-20 20 -46 55 -57 77 -12 22 -29 52
-38 66 -21 33 -13 63 31 121 24 32 45 47 67 52 42 8 55 -5 72 -72 16 -61 61
-129 91 -138 11 -4 33 -15 48 -25 14 -11 37 -19 51 -19 19 0 26 6 31 30 3 17
10 30 16 30 5 0 7 -12 4 -28 -8 -39 26 -55 76 -37 19 7 73 18 120 24 57 7 93
18 110 31 14 11 46 31 72 45 51 27 72 25 127 -15 15 -10 39 -22 54 -25 53 -14
57 -64 13 -155 -12 -25 -30 -81 -40 -124 -15 -63 -25 -86 -52 -113 -19 -18
-37 -46 -40 -61 -9 -35 -30 -67 -76 -119 -24 -27 -43 -62 -53 -100 -22 -79
-35 -112 -57 -150 -13 -22 -18 -42 -13 -61 4 -20 -2 -48 -21 -91 l-27 -62 29
-40 c17 -23 54 -54 84 -71 67 -37 60 -29 66 -70 5 -31 3 -35 -30 -53 -20 -11
-35 -24 -33 -30 6 -17 50 -35 88 -35 19 0 44 -7 55 -15 20 -15 175 -20 224 -6
33 9 38 56 11 110 -32 61 -21 137 31 226 48 82 83 126 92 117 4 -3 30 -6 59
-7 46 0 53 -3 64 -26 10 -20 10 -34 2 -58 -10 -28 -8 -37 18 -79 l29 -47 60 0
c32 -1 64 -4 71 -8 7 -4 14 1 18 13 3 11 17 23 29 26 13 3 28 16 35 30 6 13
16 24 24 24 7 0 18 13 24 30 6 16 18 30 27 30 9 0 16 7 16 15 0 12 49 68 155
175 14 14 25 31 25 37 0 6 7 17 16 24 9 8 25 33 35 57 10 24 26 50 34 58 8 9
15 33 15 54 0 27 7 47 24 65 13 14 27 41 30 60 4 19 15 39 26 45 11 6 21 26
25 52 4 24 18 63 31 87 13 24 24 56 24 71 0 16 11 38 25 53 21 20 27 38 31 93
4 39 15 83 25 102 16 28 19 55 19 178 0 132 -2 149 -24 192 -24 48 -21 74 12
95 6 4 12 21 12 37 0 21 -6 31 -22 36 -13 4 -53 32 -91 63 -38 31 -84 68 -104
83 -19 15 -61 55 -92 88 -53 57 -59 61 -120 71 -58 9 -67 8 -114 -16 -28 -14
-62 -25 -75 -25 -34 0 -82 -52 -82 -89 0 -31 0 -31 -54 -31 -30 0 -66 -4 -80
-10 -25 -9 -26 -8 -26 29 0 88 -78 145 -218 156 -78 7 -83 9 -88 34 -4 14 -13
37 -20 51 -14 24 -36 360 -26 387 2 7 12 15 22 18 26 8 30 35 14 96 -19 74
-18 79 15 79 31 0 57 22 46 40 -3 5 -22 10 -40 10 -23 0 -38 6 -44 18 -6 11
-40 29 -78 42 -37 12 -72 26 -77 31 -5 5 -2 31 8 64 14 43 23 56 42 61 14 4
29 15 34 25 8 15 2 27 -32 64 -24 25 -56 61 -71 80 -16 19 -35 35 -43 35 -7 0
-23 13 -36 30 -12 16 -29 32 -38 35 -9 3 -27 24 -40 47 -13 23 -40 67 -62 99
-21 32 -38 64 -38 72 0 8 -7 31 -16 52 -9 23 -13 51 -10 74 7 41 -4 59 -49 81
-16 8 -42 22 -57 32 -14 10 -34 18 -43 18 -10 0 -33 14 -52 30 -18 17 -42 30
-52 30 -10 0 -29 10 -42 23 -13 13 -43 34 -66 47 -46 25 -70 72 -58 110 5 17
0 23 -29 35 -19 8 -39 21 -43 29 -8 14 -130 38 -175 34 -13 -1 -97 -4 -188 -8z
m488 -1361 c3 -17 -23 -33 -39 -23 -5 3 -9 14 -9 25 0 15 6 20 22 17 13 -2 24
-10 26 -19z m-328 -57 c0 -11 -9 -30 -21 -43 -11 -13 -28 -36 -37 -51 -20 -35
-29 -35 -64 -1 -35 33 -35 43 0 75 32 30 46 36 90 37 25 1 32 -3 32 -17z m583
-181 c20 -48 52 -61 153 -61 67 0 74 -2 94 -27 31 -40 22 -62 -40 -95 -83 -44
-92 -56 -92 -124 0 -32 -6 -70 -12 -84 -7 -14 -11 -35 -11 -47 2 -19 0 -20
-21 -11 -28 13 -166 -16 -185 -38 -17 -20 -40 -17 -95 12 -50 26 -114 81 -114
97 0 5 -11 22 -25 39 -14 16 -25 35 -25 43 0 7 -7 18 -15 25 -8 7 -15 21 -15
31 0 41 -81 86 -117 66 -11 -7 -40 -23 -64 -36 -24 -13 -48 -30 -54 -37 -12
-16 -124 -29 -143 -16 -25 17 27 172 75 223 34 36 36 37 97 32 33 -3 68 -12
77 -19 21 -19 33 -18 71 6 18 11 40 20 49 20 8 0 28 14 44 30 32 34 73 39 115
15 36 -21 113 -19 151 4 27 17 34 17 59 5 17 -9 34 -30 43 -53z m-1017 -132
c10 -17 -23 -46 -37 -32 -7 7 -9 19 -6 27 7 18 33 21 43 5z m-307 -146 c-7
-19 -5 -30 11 -51 34 -42 7 -50 -34 -10 -27 26 -35 41 -30 54 12 32 24 42 44
37 15 -4 17 -9 9 -30z m186 -133 l0 -74 -38 -20 c-47 -25 -53 -18 -56 64 -2
58 -1 59 36 84 21 14 42 25 48 23 5 -2 10 -37 10 -77z m-1022 -74 l35 -24 7
21 c7 20 8 20 15 -8 11 -42 12 -105 2 -105 -5 0 -15 19 -22 41 -17 50 -58 79
-112 79 -59 0 -87 -32 -98 -109 -9 -67 1 -196 19 -229 38 -71 140 -76 196 -10
14 17 29 28 32 24 10 -10 -39 -56 -76 -72 -49 -21 -90 -17 -149 12 -73 36 -97
79 -97 169 1 58 6 79 29 122 32 58 47 74 91 97 43 23 87 20 128 -8z m2949 -11
c37 -15 48 -31 48 -70 0 -37 -10 -53 -47 -76 l-34 -21 35 -32 c45 -42 54 -76
29 -118 -28 -49 -93 -78 -197 -85 -62 -4 -86 -3 -86 6 0 6 6 11 14 11 8 0 16
14 20 33 5 29 21 326 18 344 -1 5 -12 10 -24 12 l-23 4 25 8 c36 12 181 2 222
-16z m-759 -65 c-6 -49 -5 -50 21 -50 14 0 26 -4 26 -10 0 -5 -11 -10 -25 -10
-25 0 -25 0 -25 -97 0 -102 12 -133 51 -133 10 0 21 -4 24 -10 10 -16 -33 -12
-71 6 -45 21 -68 65 -61 116 3 21 3 56 0 78 -5 34 -9 40 -29 40 -33 0 -30 18
4 22 21 2 28 9 30 31 3 22 -1 27 -17 27 -38 0 -22 17 27 27 26 6 48 11 49 12
1 0 -1 -21 -4 -49z m1209 0 c-4 -49 -4 -50 22 -50 14 0 26 -4 26 -10 0 -5 -11
-10 -25 -10 -25 0 -25 0 -25 -97 0 -102 12 -133 51 -133 10 0 21 -4 24 -10 10
-16 -33 -12 -72 6 -48 23 -65 54 -63 111 5 108 2 123 -25 123 -14 0 -25 5 -25
10 0 6 11 10 24 10 23 0 36 16 36 46 0 8 -9 14 -20 14 -37 0 -20 17 28 27 26
6 47 11 48 12 1 0 -1 -21 -4 -49z m-2799 29 c12 -7 35 -23 51 -36 16 -14 40
-23 55 -23 47 3 47 -1 -4 -19 -42 -15 -53 -15 -72 -4 -26 15 -62 17 -97 3 -18
-6 -34 -6 -51 2 l-24 11 19 27 c10 15 34 32 52 37 44 15 46 15 71 2z m-636
-46 c14 -21 13 -22 -21 -20 -30 2 -36 6 -36 25 0 18 5 23 21 20 12 -2 28 -13
36 -25z m2067 -51 c-14 -22 -48 -22 -52 1 -2 11 5 20 20 26 30 11 47 -3 32
-27z m-1721 -62 c20 -23 27 -41 27 -71 0 -36 -6 -48 -44 -85 -35 -36 -50 -44
-80 -44 -120 0 -162 125 -70 209 34 31 40 33 88 28 40 -5 57 -13 79 -37z
m2935 6 c16 -16 26 -39 29 -70 6 -45 4 -48 -41 -91 -38 -37 -53 -45 -85 -45
-47 0 -102 35 -112 72 -12 46 7 100 47 137 34 31 40 33 87 27 35 -4 59 -13 75
-30z m-1221 -41 c4 -91 13 -146 24 -140 5 4 9 2 9 -3 0 -12 -105 -26 -120 -17
-8 5 -6 11 3 18 15 12 23 37 32 103 3 21 8 49 11 62 4 20 2 23 -16 17 -11 -3
-20 -2 -20 4 0 11 26 20 55 18 17 -2 20 -10 22 -62z m383 56 c0 -5 -11 -12
-25 -15 -14 -4 -25 -10 -25 -15 0 -15 51 -120 61 -127 9 -5 59 94 59 116 0 6
-7 10 -16 10 -8 0 -12 5 -9 10 3 6 31 10 61 10 30 0 54 -4 54 -10 0 -5 -15
-10 -34 -10 -31 0 -36 -4 -49 -42 -9 -24 -32 -86 -51 -138 -20 -52 -36 -98
-36 -102 0 -5 9 -8 21 -8 11 0 17 -4 14 -10 -3 -5 -28 -10 -56 -10 -27 0 -49
5 -49 10 0 6 10 10 23 10 18 0 26 10 40 47 l18 47 -31 41 c-16 22 -46 68 -66
103 -20 34 -40 60 -44 57 -5 -3 -11 -1 -15 4 -5 9 27 16 115 24 19 2 36 5 38
5 1 1 2 -2 2 -7z m-1944 -26 c3 -60 3 -59 25 -31 22 29 68 56 94 56 9 0 23
-13 33 -29 l16 -29 31 23 c43 32 80 39 101 18 14 -14 16 -30 11 -91 -5 -68 -4
-74 15 -81 32 -12 9 -17 -42 -11 -45 6 -45 6 -17 18 26 11 27 15 27 82 0 77
-8 88 -51 71 -53 -21 -77 -53 -82 -108 -3 -40 -1 -53 9 -53 8 0 14 -4 14 -10
0 -5 -18 -10 -40 -10 -22 0 -40 4 -40 10 0 5 6 7 14 4 9 -3 15 5 20 27 8 40 8
113 0 133 -10 27 -50 18 -90 -19 l-37 -35 6 -65 6 -65 -62 0 c-54 1 -60 2 -44
14 14 11 19 34 24 101 6 87 6 88 -15 83 -12 -4 -22 -2 -22 2 0 10 35 18 70 16
18 -1 25 -7 26 -21z m464 -10 c0 -19 3 -35 6 -35 3 0 24 16 47 35 51 44 81 45
106 5 18 -30 18 -30 36 -10 10 11 34 24 54 30 32 9 38 8 54 -12 16 -19 18 -33
12 -90 -6 -57 -4 -69 9 -74 30 -12 16 -19 -29 -16 -43 4 -65 22 -26 22 20 0
31 39 31 113 0 47 -20 57 -66 32 -50 -27 -62 -45 -70 -103 -6 -44 -4 -52 10
-52 9 0 16 -4 16 -10 0 -5 -21 -10 -46 -10 -26 0 -43 4 -39 10 3 5 12 7 19 4
15 -6 26 42 26 112 0 72 -41 85 -97 29 -35 -35 -36 -37 -30 -100 l5 -65 -62 0
c-52 1 -58 3 -44 13 12 10 19 37 24 102 l7 88 -29 -7 c-19 -5 -26 -4 -19 2 11
11 39 19 73 21 19 1 22 -4 22 -34z m410 -43 c0 -99 16 -127 68 -119 51 9 72
33 72 81 0 57 -10 86 -28 86 -10 0 -12 3 -6 9 14 13 122 23 129 11 3 -5 -3
-10 -14 -10 -18 0 -19 -5 -14 -77 6 -98 8 -103 35 -103 37 0 6 -17 -44 -24
-46 -7 -48 -6 -48 18 l0 24 -50 -21 c-86 -36 -120 -3 -120 118 0 60 -1 64 -27
73 -28 10 -27 10 10 11 l37 1 0 -78z m370 42 l0 -25 26 20 c38 30 89 37 119
17 31 -21 38 -48 26 -111 -8 -41 -7 -51 7 -62 15 -10 10 -12 -30 -13 -27 0
-48 5 -48 10 0 6 8 10 19 10 14 0 22 12 30 44 15 60 14 76 -6 98 -38 42 -146
-4 -137 -59 1 -7 2 -31 3 -54 1 -32 5 -42 21 -46 41 -11 6 -23 -63 -23 -52 1
-67 3 -55 10 10 7 19 29 23 58 3 26 8 64 10 84 5 34 3 37 -22 40 -28 4 -28 4
7 15 57 18 70 16 70 -13z m960 -51 c0 -40 -5 -62 -20 -80 -28 -36 -25 -70 9
-104 27 -27 35 -29 100 -29 69 0 167 16 186 30 20 14 75 29 80 21 11 -19 81
-43 121 -43 45 1 111 29 133 56 25 30 31 16 31 -69 l0 -86 50 -50 c43 -43 50
-55 50 -89 0 -21 -5 -49 -11 -62 -15 -32 -62 -67 -100 -75 -32 -6 -32 -6 -25
29 7 38 -1 49 -64 85 -35 19 -36 19 -50 1 -8 -11 -45 -30 -82 -42 -58 -20 -73
-22 -120 -13 -63 12 -93 37 -132 112 -37 70 -47 78 -127 102 -103 31 -155 19
-173 -39 -4 -14 -17 -18 -60 -18 -45 0 -56 -3 -61 -19 -9 -30 -80 -99 -119
-115 l-35 -15 -17 57 c-9 31 -19 73 -21 94 -5 33 -2 38 25 52 27 14 34 14 59
1 32 -17 129 -20 167 -5 14 5 32 23 41 40 14 28 14 34 1 61 -16 31 -14 43 23
141 17 44 27 57 49 63 34 8 52 23 63 53 14 38 29 15 29 -45z m944 -113 c-7
-32 -8 -32 -16 -10 -10 27 0 66 13 53 5 -5 6 -24 3 -43z m-3503 -67 c35 -21
37 -33 4 -33 -14 0 -29 8 -35 19 -19 36 -12 39 31 14z m224 -9 c24 -16 44 -16
265 -1 120 9 131 9 213 -4 57 -9 81 -18 88 -31 6 -11 21 -18 39 -18 17 0 30
-4 30 -9 0 -16 -17 -21 -41 -12 -18 6 -30 3 -50 -11 -25 -19 -26 -19 -84 6
-81 36 -106 34 -129 -9 -11 -19 -25 -35 -31 -35 -25 0 -81 23 -102 42 -13 12
-29 18 -40 14 -10 -3 -30 0 -44 8 -26 13 -29 12 -75 -35 -35 -36 -56 -49 -77
-49 -33 0 -77 39 -77 69 0 11 -3 26 -6 35 -4 10 -1 16 8 16 7 0 29 9 48 19 43
24 36 24 65 5z m749 -200 c15 -22 16 -28 5 -35 -32 -20 -60 9 -45 47 8 20 18
17 40 -12z m-605 -57 l-1 -32 -13 30 c-13 31 -11 50 6 40 5 -4 9 -21 8 -38z
m2771 -169 c0 -6 -16 -26 -35 -44 -39 -39 -70 -46 -61 -14 3 11 8 28 11 39 3
10 20 23 38 28 34 11 47 8 47 -9z m-2225 -7 c8 -14 -10 -22 -30 -15 -13 5 -14
8 -3 15 17 11 26 11 33 0z m2555 -327 c8 -47 6 -60 -7 -78 l-17 -22 -33 20
c-30 20 -32 25 -33 77 0 53 1 56 33 71 39 19 44 13 57 -68z m-759 -314 c28
-16 23 -29 -16 -46 -19 -8 -35 -19 -35 -24 0 -6 -9 -10 -20 -10 -28 0 -25 20
9 58 33 36 35 36 62 22z"/>
<path d="M2598 2993 c6 -2 18 -2 25 0 6 3 1 5 -13 5 -14 0 -19 -2 -12 -5z"/>
<path d="M590 2538 c-35 -78 -21 -178 30 -223 l23 -20 -8 20 c-17 43 -27 123
-23 193 2 39 2 72 0 72 -2 0 -12 -19 -22 -42z"/>
<path d="M3604 2604 c3 -26 6 -64 6 -85 0 -38 1 -39 35 -39 41 0 101 28 129
59 45 50 -22 111 -123 111 l-54 0 7 -46z"/>
<path d="M3569 2608 c-1 -58 -7 -170 -14 -260 l-7 -88 32 0 c32 0 32 0 26 43
-3 23 -8 106 -12 185 -4 78 -11 145 -15 148 -5 3 -9 -10 -10 -28z"/>
<path d="M3620 2373 c0 -112 4 -118 60 -103 48 13 100 61 100 92 0 55 -49 97
-112 98 l-48 0 0 -87z"/>
<path d="M2950 2466 c0 -79 4 -137 10 -141 6 -4 10 28 10 88 0 52 3 115 6 141
6 38 4 46 -10 46 -14 0 -16 -17 -16 -134z"/>
<path d="M4160 2466 c0 -79 4 -137 10 -141 6 -4 10 31 10 97 0 57 3 120 6 141
5 30 4 37 -10 37 -14 0 -16 -17 -16 -134z"/>
<path d="M993 2465 c-14 -10 -26 -35 -33 -70 -20 -98 19 -157 82 -125 61 32
93 84 80 132 -14 54 -89 91 -129 63z"/>
<path d="M925 2410 c-19 -36 -19 -84 -1 -99 11 -9 14 -4 14 30 1 22 4 54 7 70
8 37 0 37 -20 -1z"/>
<path d="M3926 2457 c-49 -49 -43 -180 9 -193 42 -10 103 34 124 89 13 33 -6
90 -36 105 -45 23 -73 23 -97 -1z m56 -89 c-9 -9 -12 -7 -12 12 0 19 3 21 12
12 9 -9 9 -15 0 -24z"/>
<path d="M3866 2411 c-21 -39 -20 -85 0 -102 15 -12 16 -11 10 7 -4 12 -2 43
4 69 13 57 7 68 -14 26z"/>
<path d="M2800 2443 c-1 -23 -20 -142 -26 -157 -5 -12 0 -16 20 -16 l26 0 0
90 c0 53 -4 90 -10 90 -5 0 -10 -3 -10 -7z"/>
<path d="M3130 2393 c18 -32 41 -67 52 -78 16 -17 15 -11 -7 40 -15 33 -29 68
-32 78 -3 9 -14 17 -25 17 -18 0 -18 -4 12 -57z"/>
<path d="M1230 2428 c0 -13 -3 -54 -7 -91 -6 -68 -6 -69 18 -65 13 1 23 6 23
11 -1 4 -5 43 -9 87 -4 44 -11 80 -16 80 -5 0 -9 -10 -9 -22z"/>
<path d="M1696 2398 c-3 -29 -6 -70 -6 -90 0 -32 3 -38 21 -38 21 0 22 3 16
68 -4 37 -7 77 -7 90 0 43 -17 21 -24 -30z"/>
<path d="M2297 2442 c-8 -11 4 -157 13 -172 17 -28 25 3 20 86 -3 53 -10 89
-17 91 -6 2 -14 0 -16 -5z"/>
<path d="M2477 2420 c-3 -14 -8 -55 -12 -92 -5 -64 -4 -68 15 -68 22 0 24 25
11 130 -6 43 -9 49 -14 30z"/>
<path d="M3515 4450 c3 -5 10 -10 16 -10 5 0 9 5 9 10 0 6 -7 10 -16 10 -8 0
-12 -4 -9 -10z"/>
<path d="M3233 4314 c-41 -17 -41 -22 -3 -35 17 -6 30 -17 30 -25 0 -8 5 -14
10 -14 8 0 4 78 -4 86 -1 1 -16 -5 -33 -12z"/>
<path d="M3301 4213 c-22 -41 57 -121 107 -108 42 10 43 24 3 65 -58 59 -93
73 -110 43z"/>
<path d="M3690 3880 c-19 -36 -2 -126 27 -143 8 -5 20 -25 29 -46 16 -42 58
-71 101 -71 15 0 40 -7 56 -14 27 -15 27 -14 27 15 0 22 -6 32 -24 39 -13 4
-32 23 -43 42 -11 18 -37 63 -59 100 -27 46 -49 71 -72 81 -30 14 -33 13 -42
-3z"/>
<path d="M3850 3309 c0 -16 20 -49 29 -49 5 0 4 14 -2 30 -11 29 -27 41 -27
19z"/>
<path d="M3692 3128 c-15 -15 -16 -74 -2 -83 6 -3 10 -14 10 -24 0 -16 37 -41
60 -41 6 0 10 15 10 34 0 25 -6 38 -25 50 -14 9 -25 24 -25 34 0 29 -14 44
-28 30z"/>
<path d="M4420 3022 c-56 -28 -51 -95 14 -165 36 -40 65 -41 91 -4 40 57 26
132 -30 167 -39 24 -32 24 -75 2z"/>
<path d="M3935 3006 c-16 -7 -39 -23 -50 -35 -18 -21 -18 -25 -4 -49 8 -15 31
-35 51 -44 46 -22 110 -84 134 -129 15 -31 18 -32 25 -14 13 34 10 61 -10 79
-18 16 -18 20 -5 53 23 53 -11 122 -69 143 -36 12 -35 12 -72 -4z"/>
<path d="M2560 656 c-30 -7 -72 -24 -94 -39 -21 -14 -54 -29 -75 -32 -20 -3
-49 -10 -66 -16 -16 -6 -48 -16 -70 -21 -96 -24 -88 -14 -90 -105 -3 -117 -3
-117 -150 -109 -110 5 -123 8 -160 34 -22 16 -62 39 -90 52 -27 13 -57 28 -65
35 -8 6 -36 20 -63 29 -26 10 -52 27 -59 39 -6 12 -18 27 -26 33 -8 6 -20 26
-26 45 -8 26 -20 37 -46 46 -54 18 -149 15 -231 -8 -103 -29 -133 -33 -158
-19 -14 7 -45 9 -91 4 -66 -6 -70 -8 -70 -31 0 -28 41 -69 167 -168 17 -14 47
-32 65 -40 19 -7 40 -21 48 -29 7 -9 18 -16 25 -16 7 0 29 -13 50 -30 21 -16
43 -30 50 -30 7 0 32 -11 56 -23 24 -13 62 -30 84 -37 22 -7 50 -19 62 -27 12
-8 45 -21 73 -28 29 -8 59 -20 69 -28 9 -8 49 -20 90 -27 40 -7 92 -20 115
-30 62 -26 259 -35 296 -13 27 15 31 15 94 -12 36 -15 66 -34 66 -42 0 -10 28
-13 130 -13 104 0 130 3 130 14 0 9 32 21 97 36 87 21 102 28 157 75 70 59 80
88 45 136 -33 47 -77 60 -229 68 -75 4 -141 11 -147 14 -13 8 -5 54 16 87 8
14 37 50 63 79 41 47 48 61 48 96 0 36 -14 67 -29 64 -4 0 -31 -6 -61 -13z"/>
<path d="M1873 480 c-28 -11 -30 -27 -4 -35 10 -3 30 -19 44 -35 34 -37 70
-47 101 -27 24 16 38 57 26 77 -15 24 -126 36 -167 20z"/>
</g>
</svg>
