<?xml version="1.0" standalone="no"?>
<!DOCTYPE svg PUBLIC "-//W3C//DTD SVG 20010904//EN"
 "http://www.w3.org/TR/2001/REC-SVG-20010904/DTD/svg10.dtd">
<svg version="1.0" xmlns="http://www.w3.org/2000/svg"
 width="720.000000pt" height="720.000000pt" viewBox="0 0 720.000000 720.000000"
 preserveAspectRatio="xMidYMid meet">

<g transform="translate(0.000000,720.000000) scale(0.100000,-0.100000)"
fill="#000000" stroke="none">
<path d="M3360 7099 c-231 -6 -250 -8 -325 -33 -44 -15 -132 -34 -195 -42
-139 -18 -147 -20 -184 -51 -16 -13 -46 -33 -67 -44 -23 -11 -39 -27 -39 -37
0 -32 -35 -80 -93 -127 -53 -43 -157 -95 -190 -95 -8 0 -50 -34 -93 -76 -58
-57 -98 -85 -154 -111 -41 -20 -82 -41 -90 -49 -9 -7 -72 -20 -140 -29 -69 -9
-126 -21 -128 -26 -2 -5 -18 -9 -35 -9 -18 0 -48 -5 -67 -10 -19 -6 -57 -13
-85 -16 -34 -4 -58 -13 -76 -30 -14 -13 -34 -24 -46 -24 -11 0 -38 -14 -59
-31 -85 -67 -218 -205 -236 -245 -6 -13 -21 -31 -34 -39 -13 -8 -28 -33 -34
-55 -8 -29 -17 -41 -34 -46 -18 -4 -25 -14 -29 -42 -15 -106 -20 -127 -29
-131 -5 -2 0 -10 11 -18 24 -17 27 -48 6 -69 -8 -8 -17 -31 -21 -52 -4 -20
-16 -50 -27 -66 -16 -23 -18 -35 -11 -64 15 -60 44 -72 179 -79 127 -6 181
-21 237 -68 16 -13 52 -31 81 -40 29 -8 71 -29 94 -46 24 -16 63 -39 87 -50
25 -11 48 -24 51 -29 3 -5 26 -18 50 -29 46 -20 145 -105 145 -125 0 -27 51
-70 130 -109 82 -41 85 -43 80 -72 -12 -73 -2 -143 34 -250 21 -60 45 -123 53
-139 13 -23 15 -48 9 -129 -7 -108 -17 -127 -78 -149 -15 -5 -43 -29 -63 -54
-33 -39 -41 -44 -78 -44 -37 1 -45 5 -64 35 -12 18 -27 50 -35 71 -15 42 -38
60 -88 69 -29 5 -43 1 -82 -25 -60 -40 -92 -83 -128 -172 -16 -39 -38 -81 -49
-91 -19 -20 -19 -19 -26 29 -3 27 -9 61 -11 76 -10 52 -99 103 -141 80 -12 -7
-26 -6 -46 4 -51 27 -168 19 -235 -15 -87 -44 -182 -170 -217 -287 -21 -70
-29 -174 -17 -218 l11 -39 -72 -69 c-123 -118 -130 -123 -176 -135 -38 -9 -51
-8 -76 4 -16 9 -32 19 -35 23 -3 4 -19 14 -35 23 -46 23 -63 48 -67 96 -4 55
-27 74 -57 47 -19 -17 -19 -17 -26 41 -10 89 -18 108 -47 111 -26 3 -26 1 -33
-74 -12 -129 9 -269 46 -294 7 -5 14 -49 9 -60 -1 -3 -3 -21 -5 -40 -15 -175
16 -521 52 -576 7 -11 24 -57 37 -102 15 -47 38 -98 55 -119 16 -21 35 -60 41
-88 6 -29 26 -69 45 -94 19 -24 37 -59 41 -77 3 -19 10 -34 15 -34 5 0 27 16
49 36 37 33 40 41 40 87 0 28 -7 70 -16 94 -11 27 -14 54 -10 78 7 33 9 35 46
35 28 0 52 -9 84 -31 42 -30 47 -31 87 -21 40 10 46 9 77 -15 29 -21 38 -24
58 -14 20 9 24 18 24 51 0 51 33 100 61 93 11 -3 28 -16 38 -29 10 -13 27 -24
38 -24 32 0 50 -22 57 -69 4 -24 21 -65 38 -90 21 -32 33 -66 40 -112 10 -64
11 -66 28 -49 10 10 44 25 75 35 46 13 67 14 107 6 56 -12 143 -14 212 -5 46
7 48 9 70 59 17 37 32 55 54 64 17 7 45 29 63 49 41 44 46 98 13 134 -12 13
-24 36 -28 52 -4 16 -18 43 -31 60 l-24 32 20 41 c20 40 21 41 51 31 16 -6 53
-8 81 -6 l52 6 37 -52 c21 -28 53 -78 73 -111 20 -33 43 -65 51 -72 9 -6 46
-14 82 -18 37 -3 92 -10 122 -15 62 -11 122 -3 215 30 l61 20 47 -44 c36 -33
49 -54 54 -83 3 -21 14 -47 24 -58 10 -12 24 -35 30 -53 6 -17 19 -34 29 -37
10 -3 29 -16 43 -29 47 -43 93 -66 136 -66 54 0 116 -39 135 -84 17 -40 34
-51 99 -60 42 -7 51 -4 78 18 37 31 68 33 101 6 32 -24 186 -70 242 -71 22 0
59 -4 81 -8 40 -7 111 5 152 28 24 12 63 106 63 149 0 16 9 68 20 118 55 240
54 253 -14 329 -29 33 -67 88 -84 122 -18 34 -36 65 -42 68 -6 4 -16 19 -21
33 -16 42 7 103 67 175 48 58 58 65 96 70 60 6 86 -20 104 -108 14 -65 47
-135 63 -135 4 0 13 -11 19 -25 6 -13 26 -32 44 -41 18 -9 56 -32 84 -50 40
-27 58 -33 82 -28 27 5 31 11 37 50 4 30 11 44 21 44 12 0 14 -9 9 -43 -6 -40
-5 -44 20 -55 35 -16 77 -15 101 3 10 8 35 15 55 15 50 0 242 36 268 49 11 6
33 23 48 38 15 14 55 38 88 53 56 25 62 26 100 13 22 -8 56 -26 75 -42 19 -15
56 -33 81 -40 88 -24 93 -89 19 -233 -22 -42 -40 -88 -40 -101 0 -13 -6 -46
-14 -73 -8 -27 -17 -67 -21 -88 -5 -30 -19 -52 -59 -90 -42 -40 -55 -60 -61
-93 -4 -24 -11 -45 -16 -49 -5 -3 -15 -20 -23 -37 -7 -18 -33 -52 -58 -77 -58
-59 -86 -108 -104 -187 -20 -85 -51 -168 -80 -211 -25 -36 -26 -46 -15 -97 5
-23 -2 -49 -30 -112 -43 -93 -42 -108 7 -172 32 -42 123 -111 147 -111 25 0
66 -47 76 -85 11 -38 10 -41 -16 -62 -15 -13 -40 -28 -55 -34 -67 -27 -9 -79
87 -79 46 0 63 -5 91 -27 30 -22 48 -27 114 -31 69 -4 218 10 255 24 7 3 15
22 19 43 5 30 -1 53 -25 107 -29 63 -31 76 -27 149 4 77 10 97 56 177 72 126
136 210 150 196 5 -5 47 -11 93 -11 l84 -2 13 -40 c11 -34 11 -46 -3 -82 -15
-39 -15 -44 1 -75 26 -52 83 -117 107 -123 12 -3 40 1 63 8 34 13 44 13 65 1
36 -20 56 -17 63 9 4 16 19 29 45 39 28 11 40 23 43 39 2 16 14 29 35 38 21
10 34 23 38 42 7 31 21 45 50 51 14 2 21 13 25 38 4 27 12 38 37 50 18 8 37
27 44 42 6 15 25 37 43 49 18 12 42 39 54 60 12 21 30 40 41 44 11 3 28 25 39
48 11 23 31 51 44 63 14 11 30 41 37 66 7 25 25 59 40 76 23 24 29 43 34 98 6
59 11 73 34 93 18 15 32 43 40 75 9 34 23 60 42 76 23 20 32 39 41 89 11 63
47 151 61 151 4 0 11 21 14 48 10 71 15 82 50 118 31 31 34 38 40 121 6 92 27
165 54 197 14 15 16 49 15 230 l0 211 -36 75 c-22 48 -32 80 -27 90 4 8 10 23
13 33 4 11 15 21 26 24 17 4 20 14 20 54 0 47 -1 48 -34 54 -19 4 -47 20 -62
36 -15 16 -33 29 -38 29 -6 0 -53 38 -104 85 -51 47 -96 85 -101 85 -5 0 -24
15 -43 34 -167 170 -173 176 -208 181 -19 3 -59 9 -88 15 -56 10 -67 6 -177
-54 -16 -9 -40 -16 -51 -16 -68 0 -136 -65 -133 -125 3 -58 -5 -64 -79 -58
-60 5 -104 -1 -152 -21 -12 -5 -15 4 -16 46 0 33 -8 68 -21 93 -52 99 -128
135 -307 144 l-120 6 -11 45 c-7 25 -19 59 -27 75 -9 17 -18 53 -22 80 -11 88
-26 475 -20 500 4 15 16 28 29 31 36 9 50 53 32 105 -8 24 -18 70 -22 102 l-7
57 45 0 c43 0 77 18 77 40 0 24 -35 41 -78 39 -39 -3 -46 0 -58 22 -10 20 -34
33 -101 57 -48 16 -100 33 -114 36 -25 5 -26 8 -18 43 25 116 34 134 81 163
25 16 49 33 52 38 9 15 -39 94 -66 108 -13 6 -41 38 -63 70 -26 38 -55 66 -80
79 -40 20 -75 51 -75 66 0 4 -19 20 -41 36 -26 17 -56 52 -78 90 -20 33 -57
93 -84 132 -26 40 -52 92 -57 117 -6 25 -19 63 -30 84 -24 47 -25 68 -4 98 15
22 14 25 -9 60 -16 25 -45 47 -89 69 -36 18 -71 39 -78 48 -7 8 -23 15 -36 15
-38 0 -74 18 -85 43 -7 17 -28 29 -65 41 -30 9 -74 34 -98 55 -24 21 -65 48
-91 61 -36 17 -51 33 -68 69 -16 31 -21 54 -16 71 13 47 10 55 -36 74 -25 10
-53 28 -63 40 -33 42 -163 54 -512 45z m700 -2050 c0 -21 -47 -34 -66 -18 -17
14 -18 41 -2 57 15 15 68 -15 68 -39z m-510 -57 c21 -17 22 -20 7 -48 -9 -17
-23 -37 -32 -44 -10 -8 -32 -38 -51 -67 -19 -29 -36 -53 -39 -53 -8 0 -105
101 -105 109 0 4 20 26 44 50 29 28 59 47 92 56 64 17 59 18 84 -3z m549 -21
c-15 -5 -22 6 -14 19 6 9 10 9 16 -1 5 -8 4 -15 -2 -18z m271 -192 c41 -21 61
-50 74 -102 11 -45 60 -60 197 -62 137 -2 158 -11 184 -79 14 -37 15 -49 5
-61 -7 -8 -16 -15 -21 -15 -5 0 -26 -11 -47 -23 -20 -13 -53 -29 -72 -36 -56
-18 -82 -68 -86 -166 -1 -46 -10 -99 -19 -123 -11 -27 -15 -56 -12 -77 6 -35
6 -35 -18 -19 -14 9 -39 16 -57 17 -55 1 -186 -34 -224 -59 -30 -21 -40 -23
-77 -14 -115 25 -239 137 -307 276 -10 22 -28 51 -38 65 -11 13 -23 38 -26 56
-5 23 -20 40 -55 62 -59 38 -112 41 -145 9 -12 -13 -45 -34 -74 -47 -28 -13
-59 -34 -70 -46 -26 -29 -178 -54 -211 -33 -19 11 -21 19 -16 58 3 25 16 70
29 100 13 30 29 73 35 95 7 24 31 61 61 93 41 45 53 52 72 46 13 -4 53 -7 90
-7 60 1 72 -2 104 -28 35 -27 39 -28 61 -14 57 37 70 43 98 49 17 4 49 24 72
46 56 52 110 61 177 29 71 -33 167 -32 226 4 25 15 46 27 47 27 1 0 21 -10 43
-21z m-1461 -278 c8 -14 5 -23 -13 -40 l-24 -22 -15 22 c-12 16 -13 27 -6 41
13 23 45 23 58 -1z m-448 -185 c-19 -24 -22 -72 -6 -86 9 -8 23 -26 30 -41 13
-23 13 -29 0 -39 -19 -16 -40 0 -49 35 -4 15 -14 25 -25 25 -32 0 -44 25 -34
67 6 26 14 38 26 37 9 -1 17 4 17 11 0 8 9 10 25 7 17 -3 23 -8 16 -16z m278
-190 c-4 -22 -3 -61 2 -85 8 -36 7 -47 -7 -62 -9 -11 -22 -19 -29 -19 -6 0
-26 -11 -44 -24 -18 -14 -39 -22 -46 -20 -15 6 -30 155 -20 197 5 18 25 38 63
62 l57 35 16 -21 c12 -16 14 -31 8 -63z m-1520 -155 c17 -13 31 -27 31 -32 0
-5 3 -9 8 -9 4 0 7 12 7 28 0 15 5 29 10 32 10 5 37 -168 28 -183 -11 -18 -27
2 -48 58 -29 80 -83 121 -156 118 -52 -2 -94 -19 -121 -50 -29 -31 -47 -176
-37 -294 11 -119 30 -171 84 -218 36 -31 42 -33 94 -28 74 6 120 30 154 78 33
46 57 43 28 -4 -54 -88 -197 -123 -303 -75 -137 63 -193 168 -169 316 11 68
57 173 93 213 88 98 202 117 297 50z m4384 -3 c60 -26 84 -50 92 -94 11 -53
-16 -97 -79 -134 l-57 -32 41 -29 c44 -32 76 -77 86 -121 8 -39 -36 -111 -89
-145 -56 -35 -121 -51 -220 -53 -124 -3 -139 -2 -134 13 2 6 11 11 20 9 8 -1
18 2 21 7 3 5 10 92 16 193 5 100 12 229 15 286 l6 103 -25 -7 c-14 -3 -30 -3
-36 1 -29 18 14 25 146 25 128 0 152 -3 197 -22z m-1103 -46 c0 -4 -4 -12 -9
-17 -5 -6 -11 -33 -13 -62 l-3 -52 40 -3 c50 -4 49 -21 -2 -28 l-38 -5 3 -150
c3 -149 3 -150 30 -172 15 -13 35 -23 44 -23 26 0 48 -11 42 -21 -17 -29 -126
13 -174 67 l-30 35 0 134 0 135 -34 0 c-49 0 -53 16 -7 24 40 6 51 22 51 74 0
19 -5 22 -35 22 -54 0 -41 15 28 32 73 18 107 21 107 10z m1810 0 c0 -4 -4
-12 -9 -17 -5 -6 -11 -33 -13 -62 l-3 -52 40 -3 c50 -4 49 -21 -2 -28 l-38 -5
3 -150 c3 -149 3 -150 30 -172 15 -13 35 -23 44 -23 26 0 48 -11 42 -21 -17
-29 -126 13 -174 67 l-30 35 0 134 0 135 -34 0 c-49 0 -53 16 -7 24 40 6 51
22 51 74 0 19 -5 22 -35 22 -54 0 -41 15 28 32 73 18 107 21 107 10z m-4207
-18 c18 -9 49 -32 70 -51 35 -31 44 -34 90 -32 58 3 76 -15 25 -26 -18 -4 -51
-13 -74 -21 -37 -12 -44 -12 -79 6 -47 24 -95 26 -136 4 -28 -14 -34 -14 -75
2 -42 16 -44 18 -28 36 10 10 22 28 28 40 7 15 31 28 66 40 70 21 74 21 113 2z
m-953 -56 c11 -18 20 -36 20 -40 0 -12 -45 -9 -57 3 -9 9 -18 8 -37 -5 -33
-21 -33 -21 -28 17 6 43 19 57 53 57 22 0 34 -8 49 -32z m3096 -65 c12 -45
-54 -75 -76 -34 -13 25 -13 27 6 45 25 26 63 20 70 -11z m-2621 -79 c46 -22
85 -87 85 -142 0 -89 -114 -202 -204 -202 -56 0 -150 66 -162 116 -21 82 23
182 100 230 49 30 118 29 181 -2z m4400 0 c46 -22 85 -87 85 -142 0 -89 -114
-202 -204 -202 -56 0 -150 66 -162 116 -21 82 23 182 100 230 49 30 118 29
181 -2z m-1797 -6 c8 -8 12 -49 12 -119 0 -131 6 -166 31 -172 35 -9 20 -27
-23 -29 -119 -4 -152 -2 -155 8 -2 6 5 14 15 16 13 4 21 18 26 44 11 60 36
218 36 227 0 5 -14 6 -31 2 -24 -5 -30 -4 -27 6 8 25 95 38 116 17z m582 -3
c0 -10 -14 -17 -40 -21 -24 -4 -40 -12 -40 -20 0 -19 89 -204 98 -204 7 0 82
177 82 193 0 4 -12 7 -26 7 -16 0 -24 5 -22 13 6 15 166 23 182 7 7 -7 6 -10
-2 -11 -7 -1 -16 -3 -22 -4 -5 -1 -25 -3 -42 -4 -33 -1 -33 -1 -86 -144 -30
-78 -64 -170 -78 -205 -13 -34 -24 -67 -24 -72 0 -6 16 -10 36 -10 32 0 35 -2
24 -15 -10 -12 -31 -15 -94 -13 -45 2 -81 7 -81 12 0 6 16 10 35 10 37 1 51
20 80 107 11 32 10 39 -11 71 -118 172 -147 220 -153 242 -5 19 -13 26 -31 26
-14 0 -25 4 -25 9 0 15 34 22 134 31 50 4 94 8 99 9 4 0 7 -6 7 -14z m-2917
-20 c-2 -11 0 -37 3 -58 l6 -38 35 41 c37 42 98 80 132 80 21 0 71 -53 71 -76
0 -20 17 -18 29 4 14 25 92 62 133 62 31 0 38 -5 52 -34 13 -28 15 -53 10
-134 l-7 -100 24 -4 c13 -1 22 -7 19 -13 -5 -10 -130 -8 -140 1 -7 8 24 24 37
19 23 -8 32 23 35 122 4 124 -2 133 -65 109 -64 -24 -127 -85 -127 -123 0 -17
-3 -51 -6 -77 -6 -43 -5 -46 15 -46 14 0 21 -5 19 -12 -6 -16 -118 -18 -118
-3 0 6 10 10 22 10 27 0 36 34 40 147 3 68 0 80 -19 99 -16 16 -28 20 -48 15
-37 -9 -112 -81 -124 -119 -10 -32 -10 -41 4 -129 l7 -48 -85 0 c-47 0 -88 4
-92 9 -3 5 5 11 17 13 25 3 24 -2 41 209 l6 67 -35 -8 c-33 -8 -55 2 -34 15
14 9 100 23 125 21 14 -1 19 -7 18 -21z m700 0 c-2 -11 0 -37 3 -58 l6 -38 35
41 c37 42 98 80 132 80 21 0 71 -53 71 -76 0 -20 17 -18 29 4 14 25 92 62 133
62 31 0 38 -5 52 -34 13 -28 15 -53 10 -134 l-7 -100 24 -4 c13 -1 22 -7 19
-13 -5 -10 -130 -8 -140 1 -7 8 24 24 37 19 23 -8 32 23 35 122 4 124 -2 133
-65 109 -64 -24 -127 -85 -127 -123 0 -17 -3 -51 -6 -77 -6 -43 -5 -46 15 -46
14 0 21 -5 19 -12 -6 -16 -118 -18 -118 -3 0 6 10 10 22 10 27 0 36 34 40 147
3 68 0 80 -19 99 -16 16 -28 20 -48 15 -37 -9 -112 -81 -124 -119 -10 -32 -10
-41 4 -129 l7 -48 -85 0 c-47 0 -88 4 -92 9 -3 5 5 11 17 13 25 3 24 -2 41
209 l6 67 -35 -8 c-33 -8 -55 2 -34 15 14 9 100 23 125 21 14 -1 19 -7 18 -21z
m609 -80 c-6 -160 23 -208 113 -191 48 9 106 61 100 89 -2 12 -6 54 -9 92 -4
69 -4 70 -31 67 -19 -2 -26 1 -23 10 6 17 47 25 136 27 55 1 73 -2 69 -11 -2
-7 -14 -12 -26 -10 -23 2 -23 2 -17 -115 8 -151 9 -153 52 -153 19 0 34 -4 34
-9 0 -13 -13 -16 -131 -36 -36 -5 -36 -5 -43 34 l-6 40 -36 -24 c-48 -33 -116
-42 -149 -21 -50 33 -60 61 -60 178 l0 107 -37 6 c-57 10 -46 26 15 23 l52 -3
-3 -100z m558 48 l0 -36 23 21 c32 30 90 52 138 52 33 0 47 -6 71 -32 30 -32
31 -34 25 -113 -4 -44 -9 -90 -13 -101 -4 -17 0 -23 21 -28 21 -5 24 -10 16
-20 -7 -8 -19 -12 -29 -10 -9 1 -38 6 -64 9 -55 7 -63 22 -16 27 31 3 34 7 45
53 13 57 16 126 7 150 -4 8 -19 22 -34 30 -41 21 -118 -3 -158 -49 -32 -37
-33 -46 -16 -173 5 -38 8 -43 32 -43 25 -1 25 -2 10 -14 -12 -9 -50 -13 -113
-13 -90 -1 -119 8 -75 22 11 3 20 10 20 15 0 5 4 42 9 82 5 40 12 95 15 122
l6 48 -35 -6 c-26 -5 -35 -3 -35 6 0 13 126 49 143 41 4 -3 7 -20 7 -40z
m1440 -73 c0 -59 -4 -93 -13 -102 -55 -57 -62 -116 -19 -167 25 -30 36 -35 91
-42 132 -15 296 8 368 53 38 23 70 17 76 -15 3 -15 5 -11 6 12 1 32 2 33 19
19 48 -43 106 -63 182 -62 66 0 81 4 127 32 28 17 61 40 73 52 11 11 25 18 30
15 6 -4 10 -63 10 -135 0 -128 0 -129 26 -147 114 -77 155 -169 115 -255 -33
-72 -120 -138 -182 -138 -22 0 -23 9 -7 63 12 40 12 40 -26 73 -20 17 -49 35
-64 39 -15 4 -35 14 -44 22 -16 15 -20 14 -39 -11 -25 -32 -81 -62 -134 -72
-22 -3 -51 -12 -65 -19 -20 -9 -41 -8 -103 4 -102 21 -137 50 -202 170 -28 51
-58 99 -67 108 -29 26 -196 67 -261 64 -86 -3 -103 -12 -111 -60 -6 -41 -6
-41 -54 -43 -26 -1 -63 -1 -82 0 -32 1 -37 -2 -54 -39 -11 -22 -33 -50 -49
-61 -15 -11 -33 -31 -38 -45 -6 -16 -28 -33 -66 -50 -32 -13 -61 -30 -65 -36
-6 -10 -24 45 -63 188 -21 75 -11 110 34 120 23 5 31 12 31 28 l1 22 18 -22
c29 -34 63 -43 169 -43 87 0 101 3 134 25 26 18 41 38 50 66 11 37 10 45 -9
78 l-21 36 33 95 c54 157 55 158 94 165 40 8 101 63 101 93 0 15 5 18 25 14
24 -4 25 -6 25 -92z m1412 -158 c-6 -15 -13 -36 -15 -47 -2 -14 -7 -8 -15 22
-10 32 -10 47 -1 67 12 26 12 26 27 5 11 -15 11 -27 4 -47z m-5272 -90 c0 -5
16 -17 35 -28 45 -24 42 -48 -6 -51 -33 -3 -38 0 -53 32 -10 19 -14 40 -11 45
8 12 35 13 35 2z m492 -52 c76 0 122 5 139 14 16 8 32 10 40 5 22 -14 146 -10
182 4 35 15 180 6 225 -13 13 -6 43 -10 66 -10 40 0 45 -3 55 -30 9 -27 14
-30 55 -30 50 0 62 -10 47 -39 -10 -19 -11 -19 -48 0 l-37 19 -26 -24 c-36
-33 -57 -38 -93 -22 -101 45 -134 56 -174 56 -40 0 -45 -3 -58 -33 -7 -18 -23
-41 -34 -51 -20 -18 -22 -18 -86 -1 -43 12 -73 27 -85 42 -14 18 -28 23 -60
23 -23 0 -58 8 -77 17 l-36 17 -34 -37 c-18 -20 -38 -37 -43 -37 -5 0 -16 -13
-25 -30 -17 -34 -49 -45 -102 -37 -60 10 -79 29 -97 101 -9 36 -16 69 -16 74
0 5 17 12 39 16 21 3 58 17 81 30 l42 24 23 -24 c23 -22 31 -24 137 -24z m986
-285 c23 -36 28 -55 15 -55 -5 0 -17 -3 -29 -6 -30 -8 -56 21 -48 54 13 54 30
56 62 7z m-907 -32 c0 -5 2 -27 5 -50 6 -52 -12 -58 -22 -8 -3 19 -10 38 -15
41 -5 3 -7 10 -4 15 7 11 35 12 36 2z m4150 -305 c10 -19 9 -24 -12 -37 -13
-8 -41 -33 -61 -54 -30 -32 -40 -37 -56 -28 -17 9 -18 14 -8 55 14 53 17 57
59 73 48 17 65 15 78 -9z m-3327 -29 c-7 -12 -51 -11 -59 1 -9 15 37 30 52 18
7 -6 10 -14 7 -19z m3801 -378 c8 -16 18 -56 21 -88 4 -32 10 -65 15 -74 6
-11 1 -23 -16 -39 -14 -13 -27 -32 -31 -42 -5 -17 -7 -17 -26 7 -11 15 -31 30
-43 35 -20 7 -23 18 -29 90 -8 89 -7 91 45 120 45 25 46 25 64 -9z m-1109
-567 l35 -17 -21 -23 c-12 -12 -34 -25 -48 -29 -14 -3 -36 -18 -49 -31 -25
-27 -58 -29 -58 -3 0 28 75 119 97 119 6 0 25 -7 44 -16z"/>
<path d="M3885 4480 c28 -12 45 -12 45 0 0 6 -15 10 -32 9 -28 0 -30 -2 -13
-9z"/>
<path d="M889 3813 c-12 -26 -26 -78 -32 -115 -9 -57 -8 -77 7 -123 16 -51 67
-125 86 -125 5 0 2 12 -5 28 -22 45 -38 188 -32 289 3 51 4 93 1 93 -2 0 -13
-21 -25 -47z"/>
<path d="M5356 3961 c-5 -8 -13 -87 -17 -175 -9 -193 -17 -296 -25 -359 l-7
-47 47 0 47 0 -6 108 c-3 59 -10 150 -16 202 -5 52 -11 138 -12 190 -1 62 -5
90 -11 81z"/>
<path d="M5397 3963 c-3 -5 -3 -64 0 -132 l6 -124 61 7 c69 7 158 47 187 84
41 52 6 128 -68 149 -54 16 -180 27 -186 16z m143 -113 c0 -5 -9 -14 -20 -20
-17 -9 -20 -8 -20 10 0 13 7 20 20 20 11 0 20 -4 20 -10z"/>
<path d="M5433 3680 c-23 -10 -23 7 -9 -205 3 -38 5 -75 6 -81 0 -18 90 1 142
31 44 24 88 86 88 123 0 31 -39 86 -79 112 -46 31 -102 38 -148 20z"/>
<path d="M4425 3890 c-4 -6 -8 -94 -9 -196 -3 -168 -2 -187 15 -207 18 -22 18
-19 19 143 0 91 3 189 6 218 6 43 4 52 -9 52 -9 0 -19 -5 -22 -10z"/>
<path d="M6235 3890 c-4 -6 -8 -94 -9 -196 -3 -168 -2 -187 15 -207 18 -22 18
-19 19 143 0 91 3 189 6 218 6 43 4 52 -9 52 -9 0 -19 -5 -22 -10z"/>
<path d="M4195 3771 c-6 -11 9 -23 19 -14 9 9 7 23 -3 23 -6 0 -12 -4 -16 -9z"/>
<path d="M1463 3664 c-11 -22 -26 -70 -32 -108 -8 -57 -7 -75 6 -110 20 -49
28 -56 71 -56 71 0 152 65 172 139 13 49 -10 122 -47 147 -15 9 -54 19 -87 21
l-61 5 -22 -38z"/>
<path d="M1394 3625 c-36 -54 -35 -155 1 -185 12 -10 13 -5 9 37 -4 26 -1 75
5 107 6 33 9 61 7 64 -3 2 -12 -8 -22 -23z"/>
<path d="M5863 3664 c-11 -22 -26 -70 -32 -108 -8 -57 -7 -75 6 -110 20 -49
28 -56 71 -56 71 0 152 65 172 139 13 49 -10 122 -47 147 -15 9 -54 19 -87 21
l-61 5 -22 -38z m115 -99 c2 -12 -8 -31 -23 -45 l-25 -23 0 30 c0 17 3 39 6
48 9 22 38 15 42 -10z"/>
<path d="M5794 3625 c-36 -54 -35 -155 1 -185 12 -10 13 -5 9 37 -4 26 -1 75
5 107 6 33 9 61 7 64 -3 2 -12 -8 -22 -23z"/>
<path d="M4191 3635 c-6 -24 -11 -59 -11 -77 0 -18 -7 -58 -15 -88 -20 -73
-20 -72 18 -68 l32 3 2 132 c1 73 -2 135 -7 138 -4 3 -13 -15 -19 -40z"/>
<path d="M4650 3645 c15 -39 107 -179 132 -201 l21 -19 -16 30 c-31 60 -76
161 -82 188 -6 22 -13 27 -36 27 -26 0 -28 -2 -19 -25z"/>
<path d="M1846 3658 c-3 -7 -7 -51 -11 -98 -3 -47 -8 -102 -12 -123 l-6 -38
39 3 39 3 -3 45 c-2 25 -8 63 -12 85 -5 22 -10 61 -10 88 0 43 -15 65 -24 35z"/>
<path d="M2546 3658 c-3 -7 -7 -51 -11 -98 -3 -47 -8 -102 -12 -123 l-6 -38
39 3 39 3 -3 45 c-2 25 -8 63 -12 85 -5 22 -10 61 -10 88 0 43 -15 65 -24 35z"/>
<path d="M3434 3588 c18 -201 21 -213 47 -203 15 5 16 101 3 223 -5 48 -8 52
-31 52 l-26 0 7 -72z"/>
<path d="M3706 3613 c-3 -21 -8 -65 -11 -98 -3 -33 -8 -77 -12 -98 l-5 -38 34
4 c25 3 33 8 31 23 -1 10 -5 70 -9 132 -7 114 -18 142 -28 75z"/>
<path d="M5245 6660 c3 -5 17 -10 30 -10 13 0 27 5 30 10 4 6 -8 10 -30 10
-22 0 -34 -4 -30 -10z"/>
<path d="M4887 6488 c-5 -21 -15 -29 -42 -34 -19 -3 -37 -10 -40 -14 -9 -15 7
-40 25 -40 31 0 50 -11 50 -30 0 -20 16 -35 23 -23 3 5 2 44 -2 88 -5 60 -8
73 -14 53z"/>
<path d="M4942 6318 c-32 -32 6 -108 75 -153 36 -22 50 -26 82 -20 22 4 46 13
53 22 10 13 8 19 -12 37 -14 11 -36 36 -48 54 -25 34 -88 72 -120 72 -10 0
-23 -5 -30 -12z"/>
<path d="M5527 5811 c-33 -56 -9 -196 38 -221 15 -8 31 -32 42 -63 25 -70 75
-102 167 -110 49 -3 72 -10 78 -21 17 -31 38 -18 38 23 0 42 -10 55 -51 65
-19 4 -38 25 -66 73 -22 38 -53 90 -69 116 -16 27 -39 66 -52 87 -14 23 -33
41 -50 45 -15 3 -34 13 -42 21 -14 12 -18 10 -33 -15z"/>
<path d="M5770 4953 c0 -33 12 -62 27 -68 24 -9 25 -2 5 43 -18 44 -32 54 -32
25z"/>
<path d="M5848 4888 c9 -9 15 -9 24 0 9 9 7 12 -12 12 -19 0 -21 -3 -12 -12z"/>
<path d="M5526 4684 c-21 -21 -22 -117 -1 -134 8 -7 15 -23 15 -36 0 -24 16
-35 75 -50 24 -6 25 -5 25 50 0 51 -2 57 -29 71 -21 10 -34 29 -46 65 -9 27
-18 50 -20 50 -2 0 -11 -7 -19 -16z"/>
<path d="M6609 4523 l-54 -28 3 -50 c5 -64 19 -98 72 -163 41 -51 45 -53 84
-50 36 3 43 9 63 43 42 74 39 156 -6 211 -16 19 -85 64 -100 64 -4 0 -32 -12
-62 -27z"/>
<path d="M5913 4513 c-13 -2 -23 -7 -23 -11 0 -4 -14 -13 -31 -21 -17 -7 -39
-27 -50 -44 -18 -31 -18 -32 5 -71 18 -30 35 -44 66 -54 54 -18 191 -152 211
-205 7 -20 16 -37 19 -37 8 0 30 70 30 93 0 8 -14 29 -31 46 l-31 31 22 47
c16 34 20 56 15 82 -10 50 -77 128 -123 141 -38 10 -41 10 -79 3z"/>
<path d="M3885 993 c-82 -10 -129 -26 -163 -53 -48 -38 -97 -58 -162 -65 -29
-4 -75 -17 -102 -31 -27 -14 -80 -29 -119 -34 -40 -4 -77 -14 -83 -20 -6 -6
-11 -47 -12 -93 -1 -122 -12 -175 -40 -194 -20 -13 -47 -14 -172 -9 -164 8
-201 16 -252 57 -19 16 -52 35 -72 43 -20 9 -39 20 -42 25 -4 5 -23 15 -44 22
-20 6 -51 22 -68 34 -17 13 -67 37 -111 54 -72 28 -81 35 -87 61 -3 19 -14 34
-29 39 -16 6 -28 25 -41 65 -20 65 -28 71 -142 87 -94 14 -221 0 -324 -36 -94
-34 -143 -37 -197 -13 -39 17 -67 18 -113 1 -8 -3 -38 -5 -66 -4 l-51 2 -1
-43 c-2 -39 1 -46 29 -62 16 -10 34 -28 39 -42 5 -13 27 -32 49 -43 22 -12 42
-29 46 -40 3 -11 21 -25 39 -31 18 -6 44 -22 57 -37 13 -14 48 -36 76 -49 29
-13 61 -32 72 -43 11 -11 39 -28 63 -39 24 -10 57 -31 72 -46 16 -14 52 -33
80 -41 28 -8 68 -27 90 -41 21 -15 67 -34 102 -44 34 -10 75 -27 91 -39 15
-12 62 -30 103 -42 41 -11 91 -31 110 -44 24 -16 67 -29 140 -40 58 -10 128
-28 155 -41 38 -18 81 -26 179 -34 196 -15 249 -14 279 10 27 21 67 20 117 -5
14 -7 46 -22 73 -34 33 -15 47 -27 47 -41 0 -19 6 -20 195 -20 187 0 195 1
195 20 0 21 7 23 160 59 138 32 146 37 275 157 51 48 54 53 48 88 -4 25 -20
51 -53 85 -60 62 -90 69 -320 81 -96 5 -188 13 -205 18 -28 8 -30 12 -27 51 4
50 41 113 103 175 85 84 99 108 99 168 0 44 -4 59 -23 76 -13 12 -25 21 -28
21 -2 -1 -17 -4 -34 -6z"/>
<path d="M2830 728 c-69 -19 -77 -42 -24 -64 19 -8 44 -29 55 -48 11 -19 36
-41 61 -52 l41 -18 46 25 c43 24 46 29 49 71 2 28 -2 49 -10 55 -11 9 -166 45
-179 42 -2 0 -20 -5 -39 -11z"/>
</g>
</svg>
